<svg width="192" height="192" viewBox="0 0 192 192" fill="none" xmlns="http://www.w3.org/2000/svg">
  <!-- Background circle with gradient -->
  <defs>
    <linearGradient id="bgGradient" x1="0%" y1="0%" x2="100%" y2="100%">
      <stop offset="0%" style="stop-color:#10b981;stop-opacity:1" />
      <stop offset="100%" style="stop-color:#3b82f6;stop-opacity:1" />
    </linearGradient>
  </defs>
  
  <!-- Background circle -->
  <circle cx="96" cy="96" r="96" fill="url(#bgGradient)"/>
  
  <!-- Document icon -->
  <path d="M48 36C48 33.7909 49.7909 32 52 32H102L144 74V156C144 158.209 142.209 160 140 160H52C49.7909 160 48 158.209 48 156V36Z" fill="white" fill-opacity="0.9"/>
  
  <!-- Document fold -->
  <path d="M102 32L144 74H114C111.791 74 110 72.2091 110 70V32H102Z" fill="white" fill-opacity="0.7"/>
  
  <!-- Document lines -->
  <rect x="66" y="84" width="48" height="6" rx="3" fill="#10b981"/>
  <rect x="66" y="102" width="36" height="6" rx="3" fill="#3b82f6"/>
  <rect x="66" y="120" width="42" height="6" rx="3" fill="#10b981"/>
  <rect x="66" y="138" width="30" height="6" rx="3" fill="#3b82f6"/>
  
  <!-- EDMS text -->
  <text x="96" y="180" text-anchor="middle" font-family="Arial, sans-serif" font-size="36" font-weight="bold" fill="white">EDMS</text>
</svg> 